<svg width="287" height="244" viewBox="0 0 287 244" fill="none" xmlns="http://www.w3.org/2000/svg">
<path d="M30.7 5.02869C21.2615 2.73731 3.08747 18.3951 3.04858 30.0236C3.00223 43.8827 23.7399 49.9236 33.8217 44.0866C43.9035 38.2496 40.1385 7.32007 30.7 5.02869Z" fill="#ABABFA"/>
<path d="M33.3622 20.0633C33.3622 23.9484 30.2128 27.0978 26.3277 27.0978C22.4427 27.0978 19.2932 23.9484 19.2932 20.0633C19.2932 16.1783 22.4427 13.0288 26.3277 13.0288C30.2128 13.0288 33.3622 16.1783 33.3622 20.0633Z" fill="#111131"/>
<path d="M181.886 34.2434H187.3C190.567 34.2434 192.075 32.5578 192.075 30.2558C192.075 27.9464 190.545 26.5578 189.067 26.4539V26.3351C190.426 25.9712 191.48 24.9168 191.48 23.0158C191.48 20.7287 189.988 19.0356 187.018 19.0356H181.886V34.2434ZM183.275 32.9959V27.137H187.359C189.401 27.137 190.745 28.5182 190.745 30.2558C190.745 31.8301 189.646 32.9959 187.3 32.9959H183.275ZM183.275 25.9044V20.2831H187.018C189.097 20.2831 190.151 21.4044 190.151 23.0158C190.151 24.6866 188.941 25.9044 187.144 25.9044H183.275ZM195.427 19.0356H194.105V34.2434H195.427V19.0356ZM202.312 34.481C205.267 34.481 207.332 32.0677 207.332 28.5925C207.332 25.095 205.267 22.6816 202.312 22.6816C199.356 22.6816 197.292 25.095 197.292 28.5925C197.292 32.0677 199.356 34.481 202.312 34.481ZM202.312 33.2706C199.943 33.2706 198.621 31.1469 198.621 28.5925C198.621 26.038 199.943 23.8846 202.312 23.8846C204.681 23.8846 206.002 26.038 206.002 28.5925C206.002 31.1469 204.681 33.2706 202.312 33.2706ZM213.539 38.7582C216.242 38.7582 218.247 37.4364 218.247 34.5404V22.8376H216.955V25.0133H216.821C216.353 23.9886 215.41 22.6816 213.316 22.6816C210.495 22.6816 208.601 25.043 208.601 28.5108C208.601 32.0083 210.561 34.1246 213.294 34.1246C215.344 34.1246 216.346 32.9365 216.799 31.8895H216.918V34.4588C216.918 36.5825 215.559 37.5701 213.539 37.5701C211.586 37.5701 210.651 36.627 210.168 35.7582L209.084 36.4711C209.752 37.778 211.207 38.7582 213.539 38.7582ZM213.45 32.9142C211.185 32.9142 209.93 31.1023 209.93 28.4885C209.93 25.9192 211.163 23.8846 213.45 23.8846C215.685 23.8846 216.94 25.8153 216.94 28.4885C216.94 31.2434 215.648 32.9142 213.45 32.9142Z" fill="#ABABFA"/>
<path d="M56.4131 18.9475H62.0001V34.0156H65.814V18.9475H71.401V15.7663H56.4131V18.9475ZM76.7961 34.2829C80.1822 34.2829 82.4633 32.6345 82.998 30.0949L79.4871 29.8632C79.104 30.9058 78.1238 31.4493 76.8584 31.4493C74.9604 31.4493 73.7575 30.1929 73.7575 28.1523V28.1434H83.0782V27.1008C83.0782 22.4494 80.2624 20.1504 76.6446 20.1504C72.6169 20.1504 70.006 23.0108 70.006 27.2345C70.006 31.5741 72.5813 34.2829 76.7961 34.2829ZM73.7575 25.791C73.8377 24.2316 75.0228 22.984 76.707 22.984C78.3555 22.984 79.496 24.1603 79.505 25.791H73.7575ZM90.4849 34.2829C94.1294 34.2829 96.4194 32.1444 96.5977 28.9988H93.0155C92.7927 30.4602 91.8304 31.28 90.5294 31.28C88.7562 31.28 87.6067 29.7919 87.6067 27.1721C87.6067 24.588 88.7651 23.1088 90.5294 23.1088C91.9195 23.1088 92.8106 24.0266 93.0155 25.39H96.5977C96.4373 22.2266 94.0403 20.1504 90.467 20.1504C86.3146 20.1504 83.7483 23.0286 83.7483 27.2256C83.7483 31.3869 86.27 34.2829 90.4849 34.2829ZM101.569 26.1028C101.578 24.3385 102.657 23.3048 104.207 23.3048C105.749 23.3048 106.658 24.2939 106.649 25.9781V34.0156H110.445V25.3009C110.454 22.093 108.564 20.1504 105.713 20.1504C103.637 20.1504 102.247 21.1306 101.623 22.7435H101.463V15.7663H97.7734V34.0156H101.569V26.1028ZM128.35 22.1553C127.843 17.9405 124.652 15.5168 120.429 15.5168C115.608 15.5168 111.928 18.9207 111.928 24.891C111.928 30.8434 115.546 34.2651 120.429 34.2651C125.107 34.2651 127.932 31.1553 128.35 27.7959L124.447 27.7781C124.082 29.7295 122.549 30.8523 120.491 30.8523C117.72 30.8523 115.84 28.7939 115.84 24.891C115.84 21.095 117.693 18.9296 120.518 18.9296C122.63 18.9296 124.153 20.1504 124.447 22.1553H128.35ZM138.568 28.188C138.577 30.0236 137.321 30.986 135.958 30.986C134.523 30.986 133.596 29.979 133.587 28.3662V20.3286H129.791V29.0434C129.8 32.2424 131.671 34.1938 134.425 34.1938C136.483 34.1938 137.963 33.1335 138.577 31.5295H138.72V34.0156H142.364V20.3286H138.568V28.188ZM150.384 34.2829C153.77 34.2829 156.051 32.6345 156.586 30.0949L153.075 29.8632C152.692 30.9058 151.711 31.4493 150.446 31.4493C148.548 31.4493 147.345 30.1929 147.345 28.1523V28.1434H156.666V27.1008C156.666 22.4494 153.85 20.1504 150.232 20.1504C146.205 20.1504 143.594 23.0108 143.594 27.2345C143.594 31.5741 146.169 34.2829 150.384 34.2829ZM147.345 25.791C147.425 24.2316 148.61 22.984 150.295 22.984C151.943 22.984 153.084 24.1603 153.093 25.791H147.345ZM169.276 24.2316C168.938 21.7098 166.906 20.1504 163.449 20.1504C159.947 20.1504 157.639 21.7722 157.648 24.4098C157.639 26.4593 158.931 27.787 161.604 28.3216L163.974 28.7939C165.169 29.0345 165.712 29.4711 165.73 30.1572C165.712 30.9681 164.83 31.5473 163.502 31.5473C162.148 31.5473 161.248 30.9681 161.016 29.8543L157.282 30.0503C157.639 32.6701 159.867 34.2829 163.493 34.2829C167.04 34.2829 169.579 32.4741 169.588 29.7741C169.579 27.7959 168.287 26.6107 165.632 26.0672L163.155 25.5682C161.88 25.2919 161.408 24.8553 161.417 24.1959C161.408 23.3761 162.335 22.8415 163.511 22.8415C164.83 22.8415 165.614 23.5633 165.801 24.4454L169.276 24.2316Z" fill="#ABABFA"/>
<path d="M0 102C0 90.9543 8.95431 82 20 82C31.0457 82 40 90.9543 40 102C40 113.046 31.0457 122 20 122C8.95431 122 0 113.046 0 102Z" fill="#ABABFA"/>
<path fill-rule="evenodd" clip-rule="evenodd" d="M21.4279 112V101.999H24.1887L24.5546 98.5524H21.4279L21.4326 96.8274C21.4326 95.9285 21.518 95.4468 22.8091 95.4468H24.535V92H21.7738C18.4572 92 17.2899 93.6719 17.2899 96.4835V98.5528H15.2226V101.999H17.2899V112H21.4279Z" fill="white"/>
<path d="M104 102C104 90.9543 112.954 82 124 82C135.046 82 144 90.9543 144 102C144 113.046 135.046 122 124 122C112.954 122 104 113.046 104 102Z" fill="#ABABFA"/>
<g clip-path="url(#clip0_1_1262)">
<path d="M118.202 104.637C118.201 105.194 117.979 105.728 117.586 106.122C117.192 106.516 116.659 106.738 116.102 106.74C115.545 106.739 115.011 106.517 114.617 106.123C114.223 105.729 114.001 105.195 114 104.637C114.002 104.081 114.224 103.547 114.617 103.154C115.011 102.76 115.545 102.539 116.102 102.538H118.202V104.637ZM119.261 104.637C119.262 104.081 119.484 103.547 119.878 103.154C120.272 102.76 120.805 102.539 121.362 102.538C121.918 102.539 122.452 102.76 122.845 103.154C123.239 103.547 123.461 104.081 123.462 104.637V109.898C123.461 110.455 123.239 110.989 122.846 111.383C122.452 111.776 121.919 111.998 121.362 112C120.805 111.998 120.271 111.776 119.878 111.383C119.484 110.989 119.262 110.455 119.261 109.898V104.637ZM121.362 96.2017C120.805 96.2001 120.272 95.9784 119.878 95.5849C119.485 95.1915 119.263 94.6582 119.261 94.1017C119.262 93.5448 119.484 93.0111 119.878 92.6173C120.271 92.2235 120.805 92.0015 121.362 92C121.919 92.0015 122.452 92.2235 122.846 92.6173C123.239 93.0111 123.461 93.5448 123.462 94.1017V96.2017H121.362ZM121.362 97.2608C121.918 97.2624 122.452 97.4842 122.845 97.8779C123.239 98.2715 123.461 98.805 123.462 99.3617C123.461 99.9184 123.239 100.452 122.845 100.845C122.452 101.239 121.918 101.461 121.362 101.462H116.102C115.545 101.461 115.011 101.239 114.617 100.846C114.223 100.452 114.002 99.9185 114 99.3617C114.002 98.8048 114.223 98.2712 114.617 97.8776C115.011 97.4839 115.545 97.2622 116.102 97.2608H121.362ZM129.797 99.3617C129.798 98.8048 130.02 98.2712 130.414 97.8776C130.808 97.4839 131.341 97.2622 131.898 97.2608C132.455 97.2622 132.989 97.4839 133.383 97.8776C133.776 98.2712 133.998 98.8048 134 99.3617C133.998 99.9185 133.776 100.452 133.383 100.846C132.989 101.239 132.455 101.461 131.898 101.462H129.797V99.3617ZM128.74 99.3617C128.738 99.9187 128.516 100.452 128.122 100.846C127.728 101.24 127.194 101.461 126.637 101.462C126.081 101.461 125.547 101.239 125.154 100.845C124.76 100.452 124.539 99.9183 124.538 99.3617V94.1017C124.539 93.5449 124.76 93.0112 125.154 92.6174C125.547 92.2235 126.081 92.0015 126.637 92C127.195 92.0011 127.729 92.2229 128.123 92.6167C128.517 93.0106 128.739 93.5445 128.74 94.1017V99.3617ZM126.637 107.797C127.195 107.798 127.729 108.02 128.123 108.413C128.517 108.807 128.739 109.341 128.74 109.898C128.739 110.455 128.517 110.989 128.123 111.383C127.729 111.777 127.195 111.999 126.637 112C126.081 111.998 125.547 111.776 125.154 111.383C124.76 110.989 124.539 110.455 124.538 109.898V107.797H126.637ZM126.637 106.74C126.081 106.738 125.547 106.516 125.153 106.122C124.76 105.728 124.538 105.194 124.538 104.637C124.539 104.081 124.76 103.548 125.154 103.154C125.548 102.76 126.081 102.539 126.637 102.538H131.898C132.455 102.539 132.989 102.76 133.383 103.154C133.776 103.547 133.998 104.081 134 104.637C133.999 105.195 133.777 105.729 133.383 106.123C132.989 106.517 132.455 106.739 131.898 106.74H126.637Z" fill="white"/>
</g>
<path d="M52 102C52 90.9543 60.9543 82 72 82C83.0457 82 92 90.9543 92 102C92 113.046 83.0457 122 72 122C60.9543 122 52 113.046 52 102Z" fill="#ABABFA"/>
<g clip-path="url(#clip1_1_1262)">
<path d="M81.9616 95.8077C81.2242 96.1318 80.4367 96.3527 79.6075 96.4535C80.4525 95.9443 81.1025 95.1418 81.41 94.1843C80.6175 94.6468 79.7392 94.9835 78.8042 95.171C78.0575 94.3718 76.9933 93.8718 75.8116 93.8718C73.5475 93.8718 71.7116 95.7077 71.7116 97.9693C71.7116 98.2943 71.7492 98.6068 71.8175 98.906C68.4092 98.7452 65.3883 97.1085 63.3667 94.6343C63.0108 95.236 62.8117 95.9352 62.8117 96.6968C62.8117 98.1218 63.5367 99.3743 64.635 100.11C63.9625 100.088 63.33 99.9035 62.7783 99.5968V99.6477C62.7783 101.635 64.1892 103.293 66.0667 103.67C65.7225 103.763 65.3592 103.813 64.9867 103.813C64.725 103.813 64.4742 103.788 64.2233 103.741C64.7492 105.369 66.2608 106.555 68.06 106.589C66.66 107.688 64.8858 108.343 62.975 108.343C62.65 108.343 62.3258 108.324 62 108.287C63.8242 109.449 65.9733 110.128 68.2975 110.128C75.8425 110.128 79.9633 103.881 79.9633 98.4727C79.9633 98.2985 79.9633 98.1227 79.9508 97.9477C80.7516 97.3735 81.4508 96.6477 82.0008 95.8243L81.9616 95.8077Z" fill="white"/>
</g>
<path d="M156 102C156 90.9543 164.954 82 176 82C187.046 82 196 90.9543 196 102C196 113.046 187.046 122 176 122C164.954 122 156 113.046 156 102Z" fill="#ABABFA"/>
<g clip-path="url(#clip2_1_1262)">
<path d="M176 92C173.283 92 172.944 92.0125 171.878 92.06C170.812 92.11 170.087 92.2775 169.45 92.525C168.792 92.78 168.234 93.1225 167.678 93.6783C167.122 94.2342 166.779 94.7917 166.525 95.45C166.278 96.0875 166.109 96.8125 166.06 97.8775C166.01 98.9442 166 99.2833 166 102C166 104.717 166.012 105.056 166.06 106.123C166.11 107.187 166.278 107.913 166.525 108.55C166.78 109.207 167.122 109.766 167.678 110.322C168.234 110.877 168.792 111.221 169.45 111.475C170.088 111.722 170.813 111.891 171.878 111.94C172.944 111.99 173.283 112 176 112C178.717 112 179.056 111.987 180.123 111.94C181.187 111.89 181.913 111.722 182.55 111.475C183.207 111.22 183.766 110.877 184.322 110.322C184.877 109.766 185.221 109.209 185.475 108.55C185.722 107.913 185.891 107.187 185.94 106.123C185.99 105.056 186 104.717 186 102C186 99.2833 185.987 98.9442 185.94 97.8775C185.89 96.8133 185.722 96.0867 185.475 95.45C185.22 94.7925 184.877 94.2342 184.322 93.6783C183.766 93.1225 183.209 92.7792 182.55 92.525C181.913 92.2775 181.187 92.1092 180.123 92.06C179.056 92.01 178.717 92 176 92ZM176 93.8C178.669 93.8 178.988 93.8133 180.042 93.8592C181.017 93.905 181.546 94.0667 181.897 94.205C182.366 94.3858 182.697 94.6025 183.049 94.9517C183.398 95.3017 183.615 95.6342 183.796 96.1025C183.932 96.4542 184.096 96.9833 184.14 97.9583C184.187 99.0133 184.198 99.33 184.198 102C184.198 104.67 184.186 104.988 184.137 106.042C184.086 107.017 183.923 107.546 183.786 107.897C183.599 108.366 183.387 108.697 183.037 109.049C182.688 109.398 182.35 109.615 181.887 109.796C181.537 109.932 180.999 110.096 180.024 110.14C178.963 110.187 178.65 110.198 175.975 110.198C173.299 110.198 172.987 110.186 171.926 110.137C170.95 110.086 170.412 109.923 170.062 109.786C169.588 109.599 169.263 109.387 168.913 109.037C168.562 108.688 168.338 108.35 168.163 107.887C168.026 107.537 167.864 106.999 167.813 106.024C167.776 104.974 167.762 104.65 167.762 101.987C167.762 99.3242 167.776 98.9992 167.813 97.9367C167.864 96.9617 168.026 96.425 168.163 96.075C168.338 95.6 168.562 95.275 168.913 94.9242C169.263 94.575 169.588 94.35 170.062 94.1758C170.412 94.0375 170.938 93.875 171.913 93.825C172.976 93.7875 173.288 93.775 175.962 93.775L176 93.8ZM176 96.865C173.162 96.865 170.865 99.165 170.865 102C170.865 104.837 173.165 107.135 176 107.135C178.837 107.135 181.135 104.835 181.135 102C181.135 99.1625 178.835 96.865 176 96.865ZM176 105.333C174.158 105.333 172.667 103.842 172.667 102C172.667 100.158 174.158 98.6667 176 98.6667C177.842 98.6667 179.333 100.158 179.333 102C179.333 103.842 177.842 105.333 176 105.333ZM182.538 96.6625C182.538 97.325 182 97.8625 181.338 97.8625C180.676 97.8625 180.138 97.3242 180.138 96.6625C180.138 96.0008 180.677 95.4633 181.338 95.4633C181.999 95.4625 182.538 96.0008 182.538 96.6625Z" fill="white"/>
</g>
<defs>
<clipPath id="clip0_1_1262">
<rect width="20" height="20" fill="white" transform="translate(114 92)"/>
</clipPath>
<clipPath id="clip1_1_1262">
<rect width="20" height="20" fill="white" transform="translate(62 92)"/>
</clipPath>
<clipPath id="clip2_1_1262">
<rect width="20" height="20" fill="white" transform="translate(166 92)"/>
</clipPath>
</defs>
</svg>
