<svg width="369" height="483" viewBox="0 0 369 483" fill="none" xmlns="http://www.w3.org/2000/svg">
<rect width="369" height="483" fill="#F5F5F5"/>
<g clip-path="url(#clip0_0_1)">
<rect width="1440" height="3967" transform="translate(-535 -2692)" fill="white"/>
<path d="M0 8.00001C0 3.58174 3.58172 0 8 0H361C365.418 0 369 3.58172 369 8V475C369 479.418 365.418 483 361 483H8.00001C3.58173 483 0 479.418 0 475V8.00001Z" fill="#111131"/>
<path d="M212.59 50.2968C212.359 50.2773 212.125 50.2851 211.891 50.3203L205.754 51.2187C198.363 52.3007 191.613 56.0117 186.746 61.6718L177.926 71.9179L162.582 75.7343C161.562 75.9882 160.664 76.5468 159.98 77.3476L156.703 81.2031C156.191 81.8047 156.078 82.625 156.41 83.3398C156.742 84.0547 157.437 84.5 158.227 84.5H168.414C168.461 84.8984 168.59 85.2812 168.793 85.6367L166.637 89.6054C166.609 89.6562 166.586 89.7109 166.566 89.7656C166.469 90.0625 166.418 90.3672 166.41 90.6679L165.961 90.8047C162.352 91.9101 159.609 94.6875 158.621 98.2343C157.797 101.199 157.559 104.254 157.492 105.816C157.473 106.375 157.684 106.918 158.078 107.312C158.449 107.684 158.961 107.895 159.484 107.895C159.516 107.895 159.543 107.894 159.57 107.891C161.121 107.828 164.164 107.594 167.117 106.777C170.641 105.801 173.5 102.957 174.574 99.3593L174.641 99.1328C174.695 99.1367 174.746 99.1445 174.801 99.1445C175.145 99.1445 175.492 99.0898 175.84 98.9765C175.891 98.9609 175.937 98.9375 175.984 98.9101L179.965 96.8125C180.289 97.0039 180.637 97.1289 181 97.1875V107.277C181 108.066 181.441 108.762 182.156 109.094C182.43 109.219 182.719 109.281 183.004 109.281C183.469 109.281 183.922 109.117 184.293 108.801L188.152 105.52C188.953 104.836 189.508 103.938 189.766 102.918L193.516 87.832L203.937 78.8632C209.598 73.9961 213.308 67.2422 214.391 59.8554L215.285 53.7187C215.43 52.7773 215.121 51.8437 214.445 51.1679C213.937 50.6601 213.281 50.3593 212.59 50.2968ZM212.328 52.289C212.59 52.289 212.84 52.3906 213.031 52.5781C213.254 52.8046 213.359 53.1171 213.312 53.4336L212.414 59.5664C211.402 66.4804 207.93 72.7968 202.637 77.3515L192.191 86.3398C192.047 86.414 191.918 86.5156 191.824 86.6562L182.129 94.9961C181.738 95.3359 181.141 95.3125 180.77 94.9453L170.668 84.8437C170.301 84.4726 170.277 83.875 170.613 83.4843L188.262 62.9765C190.426 60.4609 192.988 58.3632 195.824 56.7382L200.293 61.207C200.488 61.4023 200.742 61.5 201 61.5C201.258 61.5 201.512 61.4023 201.707 61.207C202.098 60.8164 202.098 60.1836 201.707 59.7929L197.676 55.7617C200.301 54.5 203.117 53.625 206.043 53.1953L212.176 52.2968C212.227 52.2929 212.277 52.289 212.328 52.289ZM204 62.5C203.746 62.5 203.488 62.5976 203.293 62.7929C202.902 63.1836 202.902 63.8164 203.293 64.207L206.293 67.207C206.488 67.4023 206.742 67.5 207 67.5C207.258 67.5 207.512 67.4023 207.707 67.207C208.098 66.8164 208.098 66.1836 207.707 65.7929L204.707 62.7929C204.512 62.5976 204.254 62.5 204 62.5ZM196 63.5C192.691 63.5 190 66.1914 190 69.5C190 72.8086 192.691 75.5 196 75.5C199.309 75.5 202 72.8086 202 69.5C202 66.1914 199.309 63.5 196 63.5ZM196 65.5C198.207 65.5 200 67.2929 200 69.5C200 71.707 198.207 73.5 196 73.5C193.793 73.5 192 71.707 192 69.5C192 67.2929 193.793 65.5 196 65.5ZM175.672 74.539L169.102 82.1757C169.016 82.2812 168.945 82.3906 168.875 82.5H158.227L161.508 78.6406C161.914 78.164 162.453 77.8281 163.066 77.6757L175.672 74.539ZM188.277 74.9218C188.02 74.9218 187.766 75.0195 187.566 75.2148C187.176 75.6054 187.176 76.2382 187.566 76.6289L188.984 78.0429C189.176 78.2382 189.434 78.3359 189.687 78.3359C189.945 78.3359 190.203 78.2382 190.395 78.0429C190.789 77.6523 190.789 77.0195 190.395 76.6289L188.984 75.2148C188.785 75.0195 188.531 74.9218 188.277 74.9218ZM184.738 78.457C184.484 78.457 184.227 78.5547 184.031 78.75C183.641 79.1406 183.641 79.7734 184.031 80.164L185.449 81.5781C185.641 81.7734 185.898 81.8711 186.156 81.8711C186.41 81.8711 186.668 81.7734 186.859 81.5781C187.254 81.1875 187.254 80.5547 186.859 80.1601L185.445 78.75C185.25 78.5547 184.992 78.457 184.738 78.457ZM181.203 81.9961C180.949 81.9961 180.691 82.0898 180.496 82.2851C180.105 82.6797 180.105 83.3086 180.496 83.7031L181.91 85.1132C182.105 85.3086 182.359 85.4062 182.617 85.4062C182.875 85.4062 183.129 85.3086 183.324 85.1132C183.715 84.7226 183.715 84.0937 183.324 83.7031L181.91 82.2851C181.715 82.0898 181.457 81.9961 181.203 81.9961ZM177.672 85.5312C177.414 85.5312 177.16 85.625 176.965 85.8242C176.57 86.2109 176.57 86.8437 176.965 87.2343L178.375 88.6523C178.57 88.8437 178.824 88.9414 179.082 88.9414C179.34 88.9414 179.594 88.8437 179.789 88.6523C180.18 88.2617 180.18 87.6289 179.789 87.2343L178.375 85.8242C178.18 85.625 177.926 85.5312 177.672 85.5312ZM170.215 87.2148L178.387 95.3906L175.137 97.1015C174.754 97.2109 174.387 97.1328 174.148 96.8945L168.715 91.4648C168.453 91.1992 168.352 90.8242 168.441 90.4687L170.215 87.2148ZM190.895 90.0937L187.824 102.438C187.672 103.047 187.34 103.59 186.859 104L183 107.277V96.8203C183.152 96.7304 183.297 96.6289 183.437 96.5117L190.895 90.0937ZM167.031 92.5664C167.113 92.6757 167.203 92.7812 167.301 92.875L172.734 98.3125C172.75 98.3281 172.77 98.3359 172.785 98.3554L172.656 98.7851C171.777 101.734 169.449 104.055 166.582 104.848C163.824 105.613 160.953 105.832 159.492 105.902C159.555 104.43 159.777 101.543 160.547 98.7695C161.352 95.8867 163.594 93.6211 166.547 92.7187L167.031 92.5664Z" fill="url(#paint0_linear_0_1)"/>
<path d="M48 383C48 380.791 49.7909 379 52 379H317C319.209 379 321 380.791 321 383V431C321 433.209 319.209 435 317 435H52C49.7909 435 48 433.209 48 431V383Z" fill="#5C5CFF"/>
<path d="M48.5 311C48.5 309.067 50.067 307.5 52 307.5H317C318.933 307.5 320.5 309.067 320.5 311V359C320.5 360.933 318.933 362.5 317 362.5H52C50.067 362.5 48.5 360.933 48.5 359V311Z" fill="#1B1B4D" stroke="#8989F8"/>
<path d="M121.019 342V327.455H129.798V329.017H122.781V333.932H129.343V335.494H122.781V340.438H129.911V342H121.019ZM132.745 342V331.091H134.364V332.795H134.506C134.734 332.213 135.101 331.761 135.607 331.439C136.114 331.112 136.722 330.949 137.433 330.949C138.152 330.949 138.751 331.112 139.229 331.439C139.712 331.761 140.089 332.213 140.359 332.795H140.472C140.752 332.232 141.171 331.785 141.729 331.453C142.288 331.117 142.958 330.949 143.739 330.949C144.715 330.949 145.513 331.254 146.133 331.865C146.753 332.471 147.063 333.416 147.063 334.699V342H145.387V334.699C145.387 333.894 145.167 333.319 144.727 332.973C144.286 332.627 143.768 332.455 143.171 332.455C142.404 332.455 141.81 332.687 141.388 333.151C140.967 333.61 140.756 334.192 140.756 334.898V342H139.052V334.528C139.052 333.908 138.851 333.409 138.448 333.03C138.046 332.646 137.527 332.455 136.893 332.455C136.457 332.455 136.05 332.571 135.671 332.803C135.297 333.035 134.994 333.357 134.762 333.768C134.535 334.176 134.421 334.647 134.421 335.182V342H132.745ZM153.338 342.256C152.647 342.256 152.019 342.125 151.456 341.865C150.893 341.6 150.445 341.219 150.114 340.722C149.782 340.22 149.616 339.614 149.616 338.903C149.616 338.278 149.74 337.772 149.986 337.384C150.232 336.991 150.561 336.683 150.973 336.46C151.385 336.238 151.839 336.072 152.337 335.963C152.839 335.849 153.343 335.759 153.849 335.693C154.512 335.608 155.05 335.544 155.462 335.501C155.878 335.454 156.181 335.376 156.371 335.267C156.565 335.158 156.662 334.969 156.662 334.699V334.642C156.662 333.941 156.47 333.397 156.087 333.009C155.708 332.62 155.133 332.426 154.361 332.426C153.561 332.426 152.933 332.601 152.479 332.952C152.024 333.302 151.705 333.676 151.52 334.074L149.929 333.506C150.213 332.843 150.592 332.327 151.065 331.957C151.544 331.583 152.064 331.323 152.628 331.176C153.196 331.025 153.755 330.949 154.304 330.949C154.654 330.949 155.057 330.991 155.511 331.077C155.971 331.157 156.413 331.325 156.839 331.581C157.27 331.837 157.628 332.223 157.912 332.739C158.196 333.255 158.338 333.946 158.338 334.812V342H156.662V340.523H156.577C156.463 340.759 156.274 341.013 156.009 341.283C155.743 341.553 155.391 341.782 154.95 341.972C154.51 342.161 153.973 342.256 153.338 342.256ZM153.594 340.75C154.257 340.75 154.815 340.62 155.27 340.359C155.729 340.099 156.075 339.763 156.307 339.351C156.544 338.939 156.662 338.506 156.662 338.051V336.517C156.591 336.602 156.435 336.68 156.193 336.751C155.956 336.818 155.682 336.877 155.369 336.929C155.062 336.976 154.761 337.019 154.467 337.057C154.179 337.09 153.944 337.118 153.764 337.142C153.329 337.199 152.921 337.291 152.543 337.419C152.169 337.542 151.866 337.729 151.634 337.98C151.406 338.226 151.293 338.562 151.293 338.989C151.293 339.571 151.508 340.011 151.939 340.31C152.375 340.603 152.926 340.75 153.594 340.75ZM161.397 342V331.091H163.074V342H161.397ZM162.25 329.273C161.923 329.273 161.641 329.161 161.404 328.939C161.172 328.716 161.056 328.449 161.056 328.136C161.056 327.824 161.172 327.556 161.404 327.334C161.641 327.111 161.923 327 162.25 327C162.576 327 162.856 327.111 163.088 327.334C163.324 327.556 163.443 327.824 163.443 328.136C163.443 328.449 163.324 328.716 163.088 328.939C162.856 329.161 162.576 329.273 162.25 329.273ZM167.82 327.455V342H166.143V327.455H167.82ZM179.725 342.256C179.033 342.256 178.406 342.125 177.843 341.865C177.279 341.6 176.832 341.219 176.5 340.722C176.169 340.22 176.003 339.614 176.003 338.903C176.003 338.278 176.126 337.772 176.373 337.384C176.619 336.991 176.948 336.683 177.36 336.46C177.772 336.238 178.226 336.072 178.723 335.963C179.225 335.849 179.73 335.759 180.236 335.693C180.899 335.608 181.436 335.544 181.848 335.501C182.265 335.454 182.568 335.376 182.757 335.267C182.952 335.158 183.049 334.969 183.049 334.699V334.642C183.049 333.941 182.857 333.397 182.473 333.009C182.095 332.62 181.519 332.426 180.748 332.426C179.947 332.426 179.32 332.601 178.865 332.952C178.411 333.302 178.091 333.676 177.907 334.074L176.316 333.506C176.6 332.843 176.979 332.327 177.452 331.957C177.93 331.583 178.451 331.323 179.015 331.176C179.583 331.025 180.141 330.949 180.691 330.949C181.041 330.949 181.444 330.991 181.898 331.077C182.357 331.157 182.8 331.325 183.226 331.581C183.657 331.837 184.015 332.223 184.299 332.739C184.583 333.255 184.725 333.946 184.725 334.812V342H183.049V340.523H182.963C182.85 340.759 182.66 341.013 182.395 341.283C182.13 341.553 181.777 341.782 181.337 341.972C180.897 342.161 180.359 342.256 179.725 342.256ZM179.98 340.75C180.643 340.75 181.202 340.62 181.657 340.359C182.116 340.099 182.462 339.763 182.694 339.351C182.93 338.939 183.049 338.506 183.049 338.051V336.517C182.978 336.602 182.821 336.68 182.58 336.751C182.343 336.818 182.069 336.877 181.756 336.929C181.448 336.976 181.148 337.019 180.854 337.057C180.565 337.09 180.331 337.118 180.151 337.142C179.715 337.199 179.308 337.291 178.929 337.419C178.555 337.542 178.252 337.729 178.02 337.98C177.793 338.226 177.679 338.562 177.679 338.989C177.679 339.571 177.895 340.011 178.326 340.31C178.761 340.603 179.313 340.75 179.98 340.75ZM191.903 342.227C190.994 342.227 190.192 341.998 189.496 341.538C188.8 341.074 188.255 340.421 187.862 339.578C187.469 338.731 187.273 337.729 187.273 336.574C187.273 335.428 187.469 334.434 187.862 333.591C188.255 332.748 188.802 332.097 189.503 331.638C190.204 331.179 191.013 330.949 191.932 330.949C192.642 330.949 193.203 331.067 193.615 331.304C194.032 331.536 194.349 331.801 194.567 332.099C194.789 332.393 194.962 332.634 195.085 332.824H195.227V327.455H196.903V342H195.284V340.324H195.085C194.962 340.523 194.787 340.774 194.56 341.077C194.332 341.375 194.008 341.643 193.587 341.879C193.165 342.111 192.604 342.227 191.903 342.227ZM192.131 340.722C192.803 340.722 193.371 340.546 193.835 340.196C194.299 339.841 194.652 339.351 194.893 338.726C195.135 338.096 195.256 337.369 195.256 336.545C195.256 335.731 195.137 335.018 194.901 334.408C194.664 333.792 194.313 333.314 193.849 332.973C193.385 332.627 192.813 332.455 192.131 332.455C191.42 332.455 190.829 332.637 190.355 333.001C189.886 333.361 189.534 333.851 189.297 334.472C189.065 335.087 188.949 335.778 188.949 336.545C188.949 337.322 189.067 338.027 189.304 338.662C189.545 339.292 189.901 339.794 190.369 340.168C190.843 340.537 191.43 340.722 192.131 340.722ZM204.325 342.227C203.416 342.227 202.614 341.998 201.918 341.538C201.222 341.074 200.677 340.421 200.284 339.578C199.891 338.731 199.695 337.729 199.695 336.574C199.695 335.428 199.891 334.434 200.284 333.591C200.677 332.748 201.224 332.097 201.925 331.638C202.625 331.179 203.435 330.949 204.354 330.949C205.064 330.949 205.625 331.067 206.037 331.304C206.454 331.536 206.771 331.801 206.989 332.099C207.211 332.393 207.384 332.634 207.507 332.824H207.649V327.455H209.325V342H207.706V340.324H207.507C207.384 340.523 207.209 340.774 206.982 341.077C206.754 341.375 206.43 341.643 206.009 341.879C205.587 342.111 205.026 342.227 204.325 342.227ZM204.553 340.722C205.225 340.722 205.793 340.546 206.257 340.196C206.721 339.841 207.074 339.351 207.315 338.726C207.557 338.096 207.678 337.369 207.678 336.545C207.678 335.731 207.559 335.018 207.322 334.408C207.086 333.792 206.735 333.314 206.271 332.973C205.807 332.627 205.234 332.455 204.553 332.455C203.842 332.455 203.25 332.637 202.777 333.001C202.308 333.361 201.955 333.851 201.719 334.472C201.487 335.087 201.371 335.778 201.371 336.545C201.371 337.322 201.489 338.027 201.726 338.662C201.967 339.292 202.322 339.794 202.791 340.168C203.265 340.537 203.852 340.722 204.553 340.722ZM212.628 342V331.091H214.247V332.739H214.361C214.56 332.199 214.92 331.761 215.44 331.425C215.961 331.089 216.548 330.92 217.202 330.92C217.325 330.92 217.479 330.923 217.663 330.928C217.848 330.932 217.988 330.939 218.082 330.949V332.653C218.026 332.639 217.895 332.618 217.692 332.589C217.493 332.556 217.282 332.54 217.06 332.54C216.529 332.54 216.056 332.651 215.639 332.874C215.227 333.091 214.901 333.394 214.659 333.783C214.422 334.166 214.304 334.604 214.304 335.097V342H212.628ZM224.311 342.227C223.26 342.227 222.353 341.995 221.591 341.531C220.833 341.062 220.249 340.409 219.837 339.571C219.429 338.728 219.226 337.748 219.226 336.631C219.226 335.513 219.429 334.528 219.837 333.676C220.249 332.819 220.821 332.152 221.555 331.673C222.294 331.19 223.156 330.949 224.141 330.949C224.709 330.949 225.27 331.044 225.824 331.233C226.378 331.422 226.882 331.73 227.337 332.156C227.791 332.578 228.153 333.136 228.423 333.832C228.693 334.528 228.828 335.385 228.828 336.403V337.114H220.419V335.665H227.124C227.124 335.049 227 334.5 226.754 334.017C226.513 333.534 226.167 333.153 225.717 332.874C225.272 332.594 224.747 332.455 224.141 332.455C223.473 332.455 222.895 332.62 222.408 332.952C221.925 333.278 221.553 333.705 221.293 334.23C221.032 334.756 220.902 335.319 220.902 335.92V336.886C220.902 337.71 221.044 338.409 221.328 338.982C221.617 339.55 222.017 339.983 222.528 340.281C223.04 340.575 223.634 340.722 224.311 340.722C224.751 340.722 225.149 340.66 225.504 340.537C225.864 340.409 226.174 340.22 226.435 339.969C226.695 339.713 226.896 339.396 227.038 339.017L228.658 339.472C228.487 340.021 228.201 340.504 227.798 340.92C227.396 341.332 226.899 341.654 226.307 341.886C225.715 342.114 225.05 342.227 224.311 342.227ZM239.105 333.534L237.599 333.96C237.505 333.709 237.365 333.465 237.18 333.229C237 332.987 236.754 332.788 236.442 332.632C236.129 332.476 235.729 332.398 235.241 332.398C234.574 332.398 234.018 332.552 233.572 332.859C233.132 333.162 232.912 333.548 232.912 334.017C232.912 334.434 233.063 334.763 233.366 335.004C233.67 335.246 234.143 335.447 234.787 335.608L236.406 336.006C237.382 336.242 238.108 336.605 238.587 337.092C239.065 337.575 239.304 338.198 239.304 338.96C239.304 339.585 239.124 340.144 238.764 340.636C238.409 341.129 237.912 341.517 237.273 341.801C236.634 342.085 235.89 342.227 235.043 342.227C233.93 342.227 233.009 341.986 232.28 341.503C231.551 341.02 231.089 340.314 230.895 339.386L232.486 338.989C232.637 339.576 232.924 340.016 233.345 340.31C233.771 340.603 234.328 340.75 235.014 340.75C235.795 340.75 236.416 340.584 236.875 340.253C237.339 339.917 237.571 339.514 237.571 339.045C237.571 338.667 237.438 338.349 237.173 338.094C236.908 337.833 236.501 337.639 235.952 337.511L234.134 337.085C233.134 336.848 232.401 336.482 231.932 335.984C231.468 335.482 231.236 334.855 231.236 334.102C231.236 333.487 231.409 332.942 231.754 332.469C232.105 331.995 232.58 331.624 233.182 331.354C233.788 331.084 234.474 330.949 235.241 330.949C236.321 330.949 237.169 331.186 237.784 331.659C238.404 332.133 238.845 332.758 239.105 333.534ZM249.554 333.534L248.049 333.96C247.954 333.709 247.814 333.465 247.63 333.229C247.45 332.987 247.203 332.788 246.891 332.632C246.578 332.476 246.178 332.398 245.691 332.398C245.023 332.398 244.467 332.552 244.022 332.859C243.581 333.162 243.361 333.548 243.361 334.017C243.361 334.434 243.513 334.763 243.816 335.004C244.119 335.246 244.592 335.447 245.236 335.608L246.855 336.006C247.831 336.242 248.558 336.605 249.036 337.092C249.514 337.575 249.753 338.198 249.753 338.96C249.753 339.585 249.573 340.144 249.213 340.636C248.858 341.129 248.361 341.517 247.722 341.801C247.083 342.085 246.339 342.227 245.492 342.227C244.379 342.227 243.458 341.986 242.729 341.503C242 341.02 241.538 340.314 241.344 339.386L242.935 338.989C243.087 339.576 243.373 340.016 243.794 340.31C244.221 340.603 244.777 340.75 245.463 340.75C246.245 340.75 246.865 340.584 247.324 340.253C247.788 339.917 248.02 339.514 248.02 339.045C248.02 338.667 247.888 338.349 247.623 338.094C247.357 337.833 246.95 337.639 246.401 337.511L244.583 337.085C243.584 336.848 242.85 336.482 242.381 335.984C241.917 335.482 241.685 334.855 241.685 334.102C241.685 333.487 241.858 332.942 242.203 332.469C242.554 331.995 243.03 331.624 243.631 331.354C244.237 331.084 244.924 330.949 245.691 330.949C246.77 330.949 247.618 331.186 248.233 331.659C248.854 332.133 249.294 332.758 249.554 333.534Z" fill="#5C5CFF"/>
<path d="M139.747 403.091C139.662 402.371 139.316 401.812 138.71 401.415C138.104 401.017 137.361 400.818 136.48 400.818C135.836 400.818 135.273 400.922 134.79 401.131C134.312 401.339 133.938 401.625 133.668 401.99C133.402 402.355 133.27 402.769 133.27 403.233C133.27 403.621 133.362 403.955 133.547 404.234C133.736 404.509 133.978 404.739 134.271 404.923C134.565 405.103 134.873 405.252 135.195 405.371C135.517 405.484 135.812 405.577 136.082 405.648L137.56 406.045C137.938 406.145 138.36 406.282 138.824 406.457C139.293 406.633 139.74 406.872 140.166 407.175C140.597 407.473 140.952 407.857 141.232 408.325C141.511 408.794 141.651 409.369 141.651 410.051C141.651 410.837 141.445 411.547 141.033 412.182C140.625 412.816 140.029 413.321 139.243 413.695C138.462 414.069 137.512 414.256 136.395 414.256C135.353 414.256 134.451 414.088 133.689 413.751C132.931 413.415 132.335 412.946 131.899 412.345C131.468 411.744 131.224 411.045 131.168 410.25H132.986C133.033 410.799 133.218 411.254 133.54 411.614C133.866 411.969 134.278 412.234 134.776 412.409C135.277 412.58 135.817 412.665 136.395 412.665C137.067 412.665 137.671 412.556 138.206 412.338C138.741 412.116 139.165 411.808 139.477 411.415C139.79 411.017 139.946 410.553 139.946 410.023C139.946 409.54 139.811 409.147 139.541 408.844C139.271 408.541 138.916 408.295 138.476 408.105C138.036 407.916 137.56 407.75 137.048 407.608L135.259 407.097C134.122 406.77 133.223 406.304 132.56 405.697C131.897 405.091 131.565 404.298 131.565 403.318C131.565 402.504 131.786 401.794 132.226 401.188C132.671 400.577 133.268 400.103 134.016 399.767C134.768 399.426 135.609 399.256 136.537 399.256C137.474 399.256 138.308 399.424 139.037 399.76C139.766 400.091 140.344 400.546 140.77 401.124C141.201 401.701 141.428 402.357 141.452 403.091H139.747ZM154.092 399.455H155.853V409.085C155.853 410.08 155.619 410.967 155.15 411.749C154.686 412.525 154.03 413.138 153.183 413.588C152.335 414.033 151.341 414.256 150.2 414.256C149.059 414.256 148.065 414.033 147.217 413.588C146.369 413.138 145.711 412.525 145.243 411.749C144.779 410.967 144.547 410.08 144.547 409.085V399.455H146.308V408.943C146.308 409.653 146.464 410.286 146.777 410.839C147.089 411.389 147.534 411.822 148.112 412.139C148.694 412.452 149.39 412.608 150.2 412.608C151.01 412.608 151.706 412.452 152.288 412.139C152.87 411.822 153.315 411.389 153.623 410.839C153.936 410.286 154.092 409.653 154.092 408.943V399.455ZM159.371 414V399.455H164.456C165.469 399.455 166.305 399.63 166.963 399.98C167.621 400.326 168.111 400.792 168.433 401.379C168.755 401.962 168.916 402.608 168.916 403.318C168.916 403.943 168.805 404.459 168.582 404.866C168.365 405.274 168.076 405.596 167.716 405.832C167.361 406.069 166.975 406.244 166.558 406.358V406.5C167.003 406.528 167.451 406.685 167.901 406.969C168.35 407.253 168.727 407.66 169.03 408.19C169.333 408.721 169.484 409.369 169.484 410.136C169.484 410.866 169.319 411.521 168.987 412.104C168.656 412.686 168.133 413.148 167.418 413.489C166.703 413.83 165.772 414 164.626 414H159.371ZM161.132 412.438H164.626C165.777 412.438 166.594 412.215 167.077 411.77C167.564 411.32 167.808 410.776 167.808 410.136C167.808 409.644 167.683 409.189 167.432 408.773C167.181 408.351 166.823 408.015 166.359 407.764C165.895 407.509 165.346 407.381 164.712 407.381H161.132V412.438ZM161.132 405.847H164.399C164.929 405.847 165.408 405.742 165.834 405.534C166.265 405.326 166.606 405.032 166.857 404.653C167.112 404.275 167.24 403.83 167.24 403.318C167.24 402.679 167.018 402.137 166.572 401.692C166.127 401.242 165.422 401.017 164.456 401.017H161.132V405.847ZM180.333 403.091C180.248 402.371 179.902 401.812 179.296 401.415C178.69 401.017 177.947 400.818 177.066 400.818C176.422 400.818 175.859 400.922 175.376 401.131C174.897 401.339 174.523 401.625 174.254 401.99C173.988 402.355 173.856 402.769 173.856 403.233C173.856 403.621 173.948 403.955 174.133 404.234C174.322 404.509 174.564 404.739 174.857 404.923C175.151 405.103 175.459 405.252 175.781 405.371C176.103 405.484 176.398 405.577 176.668 405.648L178.146 406.045C178.524 406.145 178.946 406.282 179.41 406.457C179.879 406.633 180.326 406.872 180.752 407.175C181.183 407.473 181.538 407.857 181.817 408.325C182.097 408.794 182.237 409.369 182.237 410.051C182.237 410.837 182.031 411.547 181.619 412.182C181.211 412.816 180.615 413.321 179.829 413.695C179.048 414.069 178.098 414.256 176.981 414.256C175.939 414.256 175.037 414.088 174.275 413.751C173.517 413.415 172.921 412.946 172.485 412.345C172.054 411.744 171.81 411.045 171.754 410.25H173.572C173.619 410.799 173.804 411.254 174.126 411.614C174.452 411.969 174.864 412.234 175.362 412.409C175.863 412.58 176.403 412.665 176.981 412.665C177.653 412.665 178.257 412.556 178.792 412.338C179.327 412.116 179.751 411.808 180.063 411.415C180.376 411.017 180.532 410.553 180.532 410.023C180.532 409.54 180.397 409.147 180.127 408.844C179.857 408.541 179.502 408.295 179.062 408.105C178.621 407.916 178.146 407.75 177.634 407.608L175.844 407.097C174.708 406.77 173.808 406.304 173.146 405.697C172.483 405.091 172.151 404.298 172.151 403.318C172.151 402.504 172.371 401.794 172.812 401.188C173.257 400.577 173.853 400.103 174.602 399.767C175.354 399.426 176.195 399.256 177.123 399.256C178.06 399.256 178.894 399.424 179.623 399.76C180.352 400.091 180.93 400.546 181.356 401.124C181.787 401.701 182.014 402.357 182.038 403.091H180.333ZM196.837 404H195.076C194.971 403.493 194.789 403.048 194.529 402.665C194.273 402.281 193.961 401.959 193.591 401.699C193.227 401.434 192.822 401.235 192.377 401.102C191.932 400.97 191.468 400.903 190.985 400.903C190.104 400.903 189.306 401.126 188.591 401.571C187.881 402.016 187.315 402.672 186.894 403.538C186.477 404.405 186.269 405.468 186.269 406.727C186.269 407.987 186.477 409.05 186.894 409.916C187.315 410.783 187.881 411.438 188.591 411.884C189.306 412.329 190.104 412.551 190.985 412.551C191.468 412.551 191.932 412.485 192.377 412.352C192.822 412.22 193.227 412.023 193.591 411.763C193.961 411.498 194.273 411.173 194.529 410.79C194.789 410.402 194.971 409.956 195.076 409.455H196.837C196.704 410.198 196.463 410.863 196.113 411.45C195.762 412.037 195.327 412.537 194.806 412.949C194.285 413.356 193.7 413.666 193.051 413.879C192.408 414.092 191.719 414.199 190.985 414.199C189.744 414.199 188.641 413.896 187.675 413.29C186.709 412.684 185.949 411.822 185.395 410.705C184.841 409.587 184.564 408.261 184.564 406.727C184.564 405.193 184.841 403.867 185.395 402.75C185.949 401.633 186.709 400.771 187.675 400.165C188.641 399.559 189.744 399.256 190.985 399.256C191.719 399.256 192.408 399.362 193.051 399.575C193.7 399.788 194.285 400.101 194.806 400.513C195.327 400.92 195.762 401.417 196.113 402.004C196.463 402.587 196.704 403.252 196.837 404ZM199.683 414V399.455H204.598C205.734 399.455 206.667 399.649 207.396 400.037C208.125 400.42 208.665 400.948 209.016 401.621C209.366 402.293 209.541 403.058 209.541 403.915C209.541 404.772 209.366 405.532 209.016 406.195C208.665 406.857 208.128 407.378 207.403 407.757C206.679 408.131 205.753 408.318 204.626 408.318H200.649V406.727H204.57C205.346 406.727 205.971 406.614 206.445 406.386C206.923 406.159 207.268 405.837 207.482 405.42C207.699 404.999 207.808 404.497 207.808 403.915C207.808 403.332 207.699 402.823 207.482 402.388C207.264 401.952 206.916 401.616 206.438 401.379C205.959 401.138 205.327 401.017 204.541 401.017H201.445V414H199.683ZM206.53 407.466L210.109 414H208.064L204.541 407.466H206.53ZM214.238 399.455V414H212.476V399.455H214.238ZM217.769 414V399.455H222.854C223.868 399.455 224.703 399.63 225.362 399.98C226.02 400.326 226.51 400.792 226.832 401.379C227.154 401.962 227.315 402.608 227.315 403.318C227.315 403.943 227.203 404.459 226.981 404.866C226.763 405.274 226.474 405.596 226.114 405.832C225.759 406.069 225.373 406.244 224.957 406.358V406.5C225.402 406.528 225.849 406.685 226.299 406.969C226.749 407.253 227.125 407.66 227.428 408.19C227.731 408.721 227.883 409.369 227.883 410.136C227.883 410.866 227.717 411.521 227.386 412.104C227.054 412.686 226.531 413.148 225.816 413.489C225.101 413.83 224.171 414 223.025 414H217.769ZM219.531 412.438H223.025C224.175 412.438 224.992 412.215 225.475 411.77C225.963 411.32 226.207 410.776 226.207 410.136C226.207 409.644 226.081 409.189 225.83 408.773C225.579 408.351 225.222 408.015 224.758 407.764C224.294 407.509 223.745 407.381 223.11 407.381H219.531V412.438ZM219.531 405.847H222.798C223.328 405.847 223.806 405.742 224.232 405.534C224.663 405.326 225.004 405.032 225.255 404.653C225.511 404.275 225.638 403.83 225.638 403.318C225.638 402.679 225.416 402.137 224.971 401.692C224.526 401.242 223.82 401.017 222.854 401.017H219.531V405.847ZM230.777 414V399.455H239.555V401.017H232.538V405.932H239.101V407.494H232.538V412.438H239.669V414H230.777Z" fill="white"/>
<path d="M163.947 167V156.818H166.1V161.019H170.47V156.818H172.618V167H170.47V162.794H166.1V167H163.947ZM175.792 167V156.818H182.653V158.593H177.945V161.019H182.3V162.794H177.945V165.225H182.673V167H175.792ZM187.52 167H185.213L188.728 156.818H191.502L195.012 167H192.705L190.155 159.145H190.075L187.52 167ZM187.375 162.998H192.824V164.678H187.375V162.998ZM201.247 167H197.637V156.818H201.276C202.301 156.818 203.182 157.022 203.921 157.43C204.66 157.834 205.229 158.416 205.627 159.175C206.028 159.934 206.228 160.842 206.228 161.899C206.228 162.96 206.028 163.871 205.627 164.634C205.229 165.396 204.657 165.981 203.911 166.388C203.169 166.796 202.281 167 201.247 167ZM199.79 165.156H201.157C201.794 165.156 202.329 165.043 202.763 164.817C203.2 164.589 203.529 164.236 203.747 163.759C203.969 163.278 204.08 162.658 204.08 161.899C204.08 161.147 203.969 160.532 203.747 160.055C203.529 159.577 203.202 159.226 202.768 159.001C202.334 158.775 201.799 158.663 201.162 158.663H199.79V165.156ZM174.203 174.818V185H172.05V174.818H174.203ZM185.891 174.818V185H184.031L179.601 178.592H179.527V185H177.374V174.818H179.263L183.658 181.222H183.748V174.818H185.891ZM195.821 178.109C195.751 177.867 195.653 177.654 195.527 177.468C195.401 177.279 195.247 177.12 195.065 176.991C194.886 176.858 194.68 176.757 194.448 176.688C194.22 176.618 193.966 176.583 193.688 176.583C193.167 176.583 192.71 176.712 192.316 176.971C191.924 177.229 191.62 177.606 191.401 178.099C191.182 178.59 191.073 179.19 191.073 179.899C191.073 180.608 191.18 181.212 191.396 181.709C191.611 182.206 191.916 182.585 192.311 182.847C192.705 183.106 193.171 183.235 193.708 183.235C194.195 183.235 194.611 183.149 194.955 182.977C195.303 182.801 195.569 182.554 195.751 182.236C195.937 181.918 196.029 181.541 196.029 181.107L196.467 181.172H193.842V179.551H198.103V180.834C198.103 181.729 197.914 182.498 197.536 183.141C197.158 183.78 196.638 184.274 195.975 184.622C195.312 184.967 194.553 185.139 193.698 185.139C192.743 185.139 191.905 184.929 191.182 184.508C190.46 184.084 189.896 183.482 189.492 182.703C189.091 181.921 188.89 180.993 188.89 179.919C188.89 179.094 189.009 178.358 189.248 177.712C189.49 177.062 189.828 176.512 190.262 176.061C190.696 175.61 191.202 175.267 191.779 175.032C192.355 174.797 192.98 174.679 193.653 174.679C194.23 174.679 194.767 174.763 195.264 174.933C195.761 175.098 196.202 175.334 196.586 175.638C196.974 175.943 197.29 176.306 197.536 176.727C197.781 177.145 197.938 177.606 198.008 178.109H195.821Z" fill="#5C5CFF"/>
<path d="M79.7082 218.773H81.9298L83.792 221.223L84.2821 221.876L87.0591 225.568H84.8375L83.0079 223.118L82.5506 222.497L79.7082 218.773ZM87.7452 215.636C87.7452 217.401 87.4266 218.925 86.7896 220.21C86.1525 221.495 85.2785 222.486 84.1677 223.183C83.057 223.88 81.7882 224.229 80.3616 224.229C78.935 224.229 77.6663 223.88 76.5555 223.183C75.4447 222.486 74.5708 221.495 73.9337 220.21C73.2967 218.925 72.9781 217.401 72.9781 215.636C72.9781 213.872 73.2967 212.348 73.9337 211.062C74.5708 209.777 75.4447 208.786 76.5555 208.089C77.6663 207.393 78.935 207.044 80.3616 207.044C81.7882 207.044 83.057 207.393 84.1677 208.089C85.2785 208.786 86.1525 209.777 86.7896 211.062C87.4266 212.348 87.7452 213.872 87.7452 215.636ZM85.7849 215.636C85.7849 214.188 85.5426 212.966 85.058 211.969C84.5789 210.973 83.9282 210.219 83.106 209.707C82.2892 209.195 81.3744 208.939 80.3616 208.939C79.3489 208.939 78.4314 209.195 77.6092 209.707C76.7924 210.219 76.1417 210.973 75.6571 211.969C75.1779 212.966 74.9383 214.188 74.9383 215.636C74.9383 217.085 75.1779 218.307 75.6571 219.304C76.1417 220.3 76.7924 221.054 77.6092 221.566C78.4314 222.078 79.3489 222.334 80.3616 222.334C81.3744 222.334 82.2892 222.078 83.106 221.566C83.9282 221.054 84.5789 220.3 85.058 219.304C85.5426 218.307 85.7849 217.085 85.7849 215.636ZM98.7959 218.871V211.455H100.723V224H98.7959V221.876H98.6653C98.3712 222.513 97.9138 223.055 97.2931 223.502C96.6724 223.943 95.8883 224.163 94.9408 224.163C94.1567 224.163 93.4598 223.992 92.8499 223.649C92.2401 223.3 91.7609 222.778 91.4124 222.081C91.0639 221.378 90.8897 220.493 90.8897 219.426V211.455H92.8172V219.295C92.8172 220.21 93.0732 220.94 93.585 221.484C94.1023 222.029 94.7611 222.301 95.5616 222.301C96.0407 222.301 96.5281 222.179 97.0236 221.934C97.5245 221.689 97.9438 221.313 98.2814 220.806C98.6244 220.3 98.7959 219.655 98.7959 218.871ZM107.946 224.294C107.151 224.294 106.429 224.144 105.781 223.845C105.133 223.54 104.619 223.102 104.238 222.53C103.856 221.953 103.666 221.256 103.666 220.439C103.666 219.72 103.807 219.138 104.091 218.691C104.374 218.239 104.752 217.885 105.226 217.629C105.7 217.373 106.222 217.183 106.794 217.058C107.371 216.927 107.951 216.823 108.534 216.747C109.296 216.649 109.914 216.576 110.388 216.527C110.867 216.472 111.215 216.382 111.433 216.257C111.657 216.132 111.768 215.914 111.768 215.604V215.538C111.768 214.732 111.548 214.106 111.107 213.66C110.671 213.213 110.009 212.99 109.122 212.99C108.202 212.99 107.48 213.192 106.957 213.594C106.435 213.997 106.067 214.428 105.855 214.885L104.025 214.232C104.352 213.469 104.788 212.876 105.332 212.451C105.882 212.021 106.481 211.721 107.129 211.553C107.782 211.378 108.425 211.291 109.057 211.291C109.459 211.291 109.922 211.34 110.445 211.438C110.973 211.531 111.482 211.724 111.972 212.018C112.468 212.312 112.879 212.756 113.206 213.349C113.532 213.943 113.696 214.738 113.696 215.734V224H111.768V222.301H111.67C111.539 222.573 111.322 222.865 111.017 223.175C110.712 223.485 110.306 223.75 109.8 223.967C109.293 224.185 108.675 224.294 107.946 224.294ZM108.24 222.562C109.002 222.562 109.645 222.413 110.167 222.113C110.695 221.814 111.093 221.427 111.36 220.953C111.632 220.48 111.768 219.982 111.768 219.459V217.695C111.686 217.793 111.507 217.882 111.229 217.964C110.957 218.04 110.641 218.108 110.282 218.168C109.928 218.223 109.582 218.272 109.244 218.315C108.912 218.353 108.643 218.386 108.436 218.413C107.935 218.479 107.467 218.585 107.031 218.732C106.601 218.873 106.252 219.089 105.985 219.377C105.724 219.66 105.593 220.047 105.593 220.537C105.593 221.207 105.841 221.713 106.337 222.056C106.838 222.394 107.472 222.562 108.24 222.562ZM119.141 207.273V224H117.214V207.273H119.141ZM122.672 224V211.455H124.599V224H122.672ZM123.652 209.364C123.276 209.364 122.952 209.236 122.68 208.98C122.413 208.724 122.28 208.416 122.28 208.057C122.28 207.697 122.413 207.39 122.68 207.134C122.952 206.878 123.276 206.75 123.652 206.75C124.028 206.75 124.349 206.878 124.616 207.134C124.888 207.39 125.024 207.697 125.024 208.057C125.024 208.416 124.888 208.724 124.616 208.98C124.349 209.236 124.028 209.364 123.652 209.364ZM133.586 211.455V213.088H127.084V211.455H133.586ZM128.979 208.449H130.907V220.406C130.907 220.951 130.986 221.359 131.144 221.631C131.307 221.898 131.514 222.078 131.765 222.17C132.02 222.258 132.29 222.301 132.573 222.301C132.785 222.301 132.96 222.29 133.096 222.268C133.232 222.241 133.341 222.219 133.423 222.203L133.815 223.935C133.684 223.984 133.501 224.033 133.267 224.082C133.033 224.136 132.736 224.163 132.377 224.163C131.833 224.163 131.299 224.046 130.776 223.812C130.259 223.578 129.829 223.221 129.486 222.742C129.148 222.263 128.979 221.659 128.979 220.929V208.449ZM137.727 228.705C137.4 228.705 137.109 228.677 136.853 228.623C136.597 228.574 136.42 228.525 136.322 228.476L136.812 226.777C137.28 226.897 137.694 226.94 138.054 226.908C138.413 226.875 138.731 226.714 139.009 226.426C139.292 226.143 139.551 225.683 139.785 225.045L140.144 224.065L135.505 211.455H137.596L141.059 221.452H141.19L144.653 211.455H146.744L141.419 225.83C141.179 226.478 140.882 227.014 140.528 227.439C140.174 227.869 139.763 228.187 139.295 228.394C138.832 228.601 138.309 228.705 137.727 228.705ZM161.213 211.455V213.088H154.711V211.455H161.213ZM156.606 208.449H158.534V220.406C158.534 220.951 158.613 221.359 158.771 221.631C158.934 221.898 159.141 222.078 159.391 222.17C159.647 222.258 159.917 222.301 160.2 222.301C160.412 222.301 160.587 222.29 160.723 222.268C160.859 222.241 160.968 222.219 161.049 222.203L161.442 223.935C161.311 223.984 161.128 224.033 160.894 224.082C160.66 224.136 160.363 224.163 160.004 224.163C159.46 224.163 158.926 224.046 158.403 223.812C157.886 223.578 157.456 223.221 157.113 222.742C156.775 222.263 156.606 221.659 156.606 220.929V208.449ZM169.238 224.261C168.029 224.261 166.986 223.995 166.109 223.461C165.238 222.922 164.566 222.17 164.092 221.207C163.624 220.237 163.39 219.11 163.39 217.825C163.39 216.54 163.624 215.408 164.092 214.428C164.566 213.442 165.225 212.674 166.068 212.124C166.918 211.569 167.909 211.291 169.042 211.291C169.695 211.291 170.34 211.4 170.977 211.618C171.614 211.836 172.194 212.19 172.717 212.68C173.24 213.164 173.656 213.807 173.967 214.607C174.277 215.408 174.432 216.393 174.432 217.564V218.381H164.762V216.714H172.472C172.472 216.007 172.33 215.375 172.047 214.82C171.769 214.264 171.372 213.826 170.855 213.505C170.343 213.183 169.738 213.023 169.042 213.023C168.274 213.023 167.609 213.213 167.049 213.594C166.493 213.97 166.066 214.46 165.766 215.065C165.467 215.669 165.317 216.317 165.317 217.009V218.119C165.317 219.067 165.48 219.87 165.807 220.529C166.139 221.182 166.599 221.68 167.187 222.023C167.776 222.361 168.459 222.53 169.238 222.53C169.744 222.53 170.201 222.459 170.61 222.317C171.024 222.17 171.38 221.953 171.68 221.664C171.979 221.37 172.211 221.005 172.374 220.57L174.236 221.092C174.04 221.724 173.711 222.279 173.248 222.759C172.785 223.232 172.213 223.603 171.533 223.869C170.852 224.131 170.087 224.261 169.238 224.261ZM182.461 224.261C181.285 224.261 180.272 223.984 179.423 223.428C178.573 222.873 177.92 222.108 177.462 221.133C177.005 220.158 176.776 219.045 176.776 217.793C176.776 216.518 177.01 215.394 177.479 214.419C177.952 213.439 178.611 212.674 179.455 212.124C180.305 211.569 181.296 211.291 182.428 211.291C183.31 211.291 184.105 211.455 184.813 211.781C185.521 212.108 186.101 212.565 186.553 213.153C187.005 213.741 187.285 214.428 187.394 215.212H185.467C185.32 214.64 184.993 214.134 184.486 213.692C183.986 213.246 183.31 213.023 182.461 213.023C181.709 213.023 181.051 213.219 180.484 213.611C179.923 213.997 179.485 214.545 179.169 215.252C178.859 215.955 178.704 216.78 178.704 217.727C178.704 218.696 178.856 219.54 179.161 220.259C179.472 220.978 179.907 221.536 180.468 221.934C181.034 222.331 181.699 222.53 182.461 222.53C182.962 222.53 183.417 222.443 183.825 222.268C184.233 222.094 184.579 221.844 184.862 221.517C185.145 221.19 185.347 220.798 185.467 220.341H187.394C187.285 221.081 187.016 221.748 186.586 222.342C186.161 222.93 185.597 223.398 184.895 223.747C184.198 224.09 183.387 224.261 182.461 224.261ZM192.14 216.453V224H190.212V207.273H192.14V213.415H192.303C192.597 212.767 193.038 212.252 193.626 211.871C194.22 211.484 195.009 211.291 195.995 211.291C196.85 211.291 197.598 211.463 198.241 211.806C198.883 212.143 199.381 212.663 199.735 213.366C200.095 214.063 200.274 214.95 200.274 216.028V224H198.347V216.159C198.347 215.163 198.088 214.392 197.571 213.848C197.059 213.298 196.349 213.023 195.439 213.023C194.808 213.023 194.241 213.156 193.74 213.423C193.245 213.69 192.853 214.079 192.564 214.591C192.281 215.103 192.14 215.723 192.14 216.453ZM212.197 216.453V224H210.27V211.455H212.132V213.415H212.295C212.589 212.778 213.036 212.266 213.635 211.879C214.234 211.487 215.007 211.291 215.954 211.291C216.804 211.291 217.547 211.465 218.184 211.814C218.821 212.157 219.317 212.68 219.67 213.382C220.024 214.079 220.201 214.961 220.201 216.028V224H218.274V216.159C218.274 215.174 218.018 214.406 217.506 213.856C216.994 213.3 216.292 213.023 215.399 213.023C214.784 213.023 214.234 213.156 213.749 213.423C213.27 213.69 212.891 214.079 212.614 214.591C212.336 215.103 212.197 215.723 212.197 216.453ZM228.984 224.261C227.775 224.261 226.732 223.995 225.855 223.461C224.984 222.922 224.312 222.17 223.838 221.207C223.37 220.237 223.136 219.11 223.136 217.825C223.136 216.54 223.37 215.408 223.838 214.428C224.312 213.442 224.971 212.674 225.815 212.124C226.664 211.569 227.655 211.291 228.788 211.291C229.441 211.291 230.086 211.4 230.723 211.618C231.36 211.836 231.94 212.19 232.463 212.68C232.986 213.164 233.402 213.807 233.713 214.607C234.023 215.408 234.178 216.393 234.178 217.564V218.381H224.508V216.714H232.218C232.218 216.007 232.076 215.375 231.793 214.82C231.516 214.264 231.118 213.826 230.601 213.505C230.089 213.183 229.485 213.023 228.788 213.023C228.02 213.023 227.356 213.213 226.795 213.594C226.239 213.97 225.812 214.46 225.512 215.065C225.213 215.669 225.063 216.317 225.063 217.009V218.119C225.063 219.067 225.227 219.87 225.553 220.529C225.885 221.182 226.345 221.68 226.934 222.023C227.522 222.361 228.205 222.53 228.984 222.53C229.49 222.53 229.947 222.459 230.356 222.317C230.77 222.17 231.126 221.953 231.426 221.664C231.725 221.37 231.957 221.005 232.12 220.57L233.982 221.092C233.786 221.724 233.457 222.279 232.994 222.759C232.531 223.232 231.959 223.603 231.279 223.869C230.598 224.131 229.833 224.261 228.984 224.261ZM239.953 224L236.13 211.455H238.156L240.867 221.06H240.998L243.677 211.455H245.735L248.382 221.027H248.512L251.224 211.455H253.25L249.427 224H247.532L244.788 214.362H244.592L241.848 224H239.953ZM264.684 214.264L262.953 214.754C262.844 214.466 262.683 214.185 262.471 213.913C262.264 213.635 261.981 213.407 261.621 213.227C261.262 213.047 260.802 212.957 260.241 212.957C259.473 212.957 258.834 213.134 258.322 213.488C257.815 213.837 257.562 214.281 257.562 214.82C257.562 215.299 257.736 215.677 258.085 215.955C258.433 216.233 258.978 216.464 259.718 216.649L261.581 217.107C262.702 217.379 263.538 217.795 264.088 218.356C264.638 218.912 264.913 219.628 264.913 220.504C264.913 221.223 264.706 221.866 264.292 222.432C263.884 222.998 263.312 223.445 262.577 223.771C261.842 224.098 260.987 224.261 260.012 224.261C258.733 224.261 257.674 223.984 256.835 223.428C255.997 222.873 255.466 222.062 255.242 220.994L257.072 220.537C257.246 221.212 257.576 221.719 258.06 222.056C258.55 222.394 259.19 222.562 259.98 222.562C260.878 222.562 261.591 222.372 262.12 221.991C262.653 221.604 262.92 221.141 262.92 220.602C262.92 220.167 262.768 219.802 262.463 219.508C262.158 219.208 261.689 218.985 261.058 218.838L258.967 218.348C257.818 218.076 256.974 217.654 256.435 217.082C255.901 216.505 255.635 215.783 255.635 214.918C255.635 214.21 255.833 213.584 256.231 213.039C256.634 212.495 257.181 212.067 257.872 211.757C258.569 211.446 259.359 211.291 260.241 211.291C261.483 211.291 262.457 211.563 263.165 212.108C263.878 212.652 264.385 213.371 264.684 214.264ZM269.219 224.131C268.816 224.131 268.471 223.986 268.182 223.698C267.893 223.409 267.749 223.063 267.749 222.661C267.749 222.258 267.893 221.912 268.182 221.623C268.471 221.335 268.816 221.19 269.219 221.19C269.622 221.19 269.968 221.335 270.257 221.623C270.545 221.912 270.689 222.258 270.689 222.661C270.689 222.927 270.621 223.172 270.485 223.396C270.355 223.619 270.178 223.799 269.954 223.935C269.737 224.065 269.492 224.131 269.219 224.131ZM282.904 207.273V224H280.879V207.273H282.904ZM288.632 216.453V224H286.704V211.455H288.566V213.415H288.73C289.024 212.778 289.47 212.266 290.069 211.879C290.668 211.487 291.441 211.291 292.389 211.291C293.238 211.291 293.981 211.465 294.619 211.814C295.256 212.157 295.751 212.68 296.105 213.382C296.459 214.079 296.636 214.961 296.636 216.028V224H294.708V216.159C294.708 215.174 294.452 214.406 293.941 213.856C293.429 213.3 292.726 213.023 291.833 213.023C291.218 213.023 290.668 213.156 290.184 213.423C289.704 213.69 289.326 214.079 289.048 214.591C288.771 215.103 288.632 215.723 288.632 216.453ZM59.1697 264.705C58.843 264.705 58.5517 264.677 58.2958 264.623C58.0399 264.574 57.8629 264.525 57.7649 264.476L58.255 262.777C58.7232 262.897 59.1371 262.94 59.4964 262.908C59.8558 262.875 60.1744 262.714 60.4521 262.426C60.7352 262.143 60.9938 261.683 61.228 261.045L61.5874 260.065L56.9482 247.455H59.0391L62.5021 257.452H62.6328L66.0959 247.455H68.1868L62.8615 261.83C62.6219 262.478 62.3252 263.014 61.9712 263.439C61.6173 263.869 61.2062 264.187 60.7379 264.394C60.2751 264.601 59.7524 264.705 59.1697 264.705ZM75.3784 260.261C74.2458 260.261 73.2521 259.992 72.3972 259.453C71.5478 258.914 70.8835 258.16 70.4043 257.19C69.9306 256.221 69.6937 255.089 69.6937 253.793C69.6937 252.486 69.9306 251.345 70.4043 250.37C70.8835 249.396 71.5478 248.639 72.3972 248.1C73.2521 247.561 74.2458 247.291 75.3784 247.291C76.5109 247.291 77.502 247.561 78.3514 248.1C79.2063 248.639 79.8706 249.396 80.3443 250.37C80.8234 251.345 81.063 252.486 81.063 253.793C81.063 255.089 80.8234 256.221 80.3443 257.19C79.8706 258.16 79.2063 258.914 78.3514 259.453C77.502 259.992 76.5109 260.261 75.3784 260.261ZM75.3784 258.53C76.2387 258.53 76.9466 258.309 77.502 257.868C78.0574 257.427 78.4685 256.847 78.7353 256.129C79.0021 255.41 79.1355 254.631 79.1355 253.793C79.1355 252.954 79.0021 252.173 78.7353 251.449C78.4685 250.724 78.0574 250.139 77.502 249.692C76.9466 249.246 76.2387 249.023 75.3784 249.023C74.5181 249.023 73.8102 249.246 73.2548 249.692C72.6994 250.139 72.2883 250.724 72.0215 251.449C71.7547 252.173 71.6213 252.954 71.6213 253.793C71.6213 254.631 71.7547 255.41 72.0215 256.129C72.2883 256.847 72.6994 257.427 73.2548 257.868C73.8102 258.309 74.5181 258.53 75.3784 258.53ZM91.9117 254.871V247.455H93.8392V260H91.9117V257.876H91.781C91.4869 258.513 91.0296 259.055 90.4088 259.502C89.7881 259.943 89.004 260.163 88.0566 260.163C87.2725 260.163 86.5755 259.992 85.9656 259.649C85.3558 259.3 84.8766 258.778 84.5281 258.081C84.1797 257.378 84.0054 256.493 84.0054 255.426V247.455H85.933V255.295C85.933 256.21 86.1889 256.94 86.7007 257.484C87.218 258.029 87.8769 258.301 88.6773 258.301C89.1565 258.301 89.6438 258.179 90.1393 257.934C90.6402 257.689 91.0595 257.313 91.3971 256.806C91.7401 256.3 91.9117 255.655 91.9117 254.871ZM97.3697 260V247.455H99.2319V249.349H99.3626C99.5913 248.729 100.005 248.225 100.604 247.838C101.203 247.452 101.878 247.259 102.63 247.259C102.771 247.259 102.948 247.261 103.161 247.267C103.373 247.272 103.533 247.28 103.642 247.291V249.251C103.577 249.235 103.427 249.211 103.193 249.178C102.964 249.14 102.722 249.121 102.466 249.121C101.856 249.121 101.312 249.249 100.833 249.505C100.359 249.755 99.9833 250.104 99.7056 250.55C99.4334 250.991 99.2972 251.495 99.2972 252.061V260H97.3697ZM112.396 260V247.455H114.324V260H112.396ZM113.376 245.364C113 245.364 112.676 245.236 112.404 244.98C112.137 244.724 112.004 244.416 112.004 244.057C112.004 243.697 112.137 243.39 112.404 243.134C112.676 242.878 113 242.75 113.376 242.75C113.752 242.75 114.073 242.878 114.34 243.134C114.612 243.39 114.748 243.697 114.748 244.057C114.748 244.416 114.612 244.724 114.34 244.98C114.073 245.236 113.752 245.364 113.376 245.364ZM119.782 252.453V260H117.854V247.455H119.716V249.415H119.88C120.174 248.778 120.62 248.266 121.219 247.879C121.818 247.487 122.591 247.291 123.539 247.291C124.388 247.291 125.131 247.465 125.768 247.814C126.406 248.157 126.901 248.68 127.255 249.382C127.609 250.079 127.786 250.961 127.786 252.028V260H125.858V252.159C125.858 251.174 125.602 250.406 125.091 249.856C124.579 249.3 123.876 249.023 122.983 249.023C122.368 249.023 121.818 249.156 121.333 249.423C120.854 249.69 120.476 250.079 120.198 250.591C119.92 251.103 119.782 251.723 119.782 252.453ZM131.57 260V243.273H133.497V249.447H133.66C133.802 249.23 133.998 248.952 134.248 248.614C134.504 248.271 134.869 247.966 135.343 247.7C135.822 247.427 136.47 247.291 137.287 247.291C138.343 247.291 139.274 247.555 140.08 248.083C140.886 248.612 141.515 249.36 141.967 250.33C142.419 251.299 142.645 252.442 142.645 253.76C142.645 255.089 142.419 256.24 141.967 257.215C141.515 258.184 140.889 258.935 140.088 259.469C139.288 259.997 138.365 260.261 137.32 260.261C136.514 260.261 135.868 260.128 135.384 259.861C134.899 259.589 134.526 259.281 134.265 258.938C134.003 258.59 133.802 258.301 133.66 258.072H133.432V260H131.57ZM133.464 253.727C133.464 254.675 133.603 255.511 133.881 256.235C134.159 256.953 134.564 257.517 135.098 257.925C135.632 258.328 136.285 258.53 137.058 258.53C137.864 258.53 138.536 258.317 139.076 257.893C139.62 257.463 140.028 256.885 140.301 256.161C140.578 255.432 140.717 254.62 140.717 253.727C140.717 252.845 140.581 252.05 140.309 251.342C140.042 250.629 139.636 250.065 139.092 249.652C138.553 249.232 137.875 249.023 137.058 249.023C136.274 249.023 135.615 249.221 135.082 249.619C134.548 250.011 134.145 250.561 133.873 251.269C133.601 251.971 133.464 252.791 133.464 253.727ZM150.69 260.261C149.557 260.261 148.564 259.992 147.709 259.453C146.859 258.914 146.195 258.16 145.716 257.19C145.242 256.221 145.005 255.089 145.005 253.793C145.005 252.486 145.242 251.345 145.716 250.37C146.195 249.396 146.859 248.639 147.709 248.1C148.564 247.561 149.557 247.291 150.69 247.291C151.822 247.291 152.813 247.561 153.663 248.1C154.518 248.639 155.182 249.396 155.656 250.37C156.135 251.345 156.375 252.486 156.375 253.793C156.375 255.089 156.135 256.221 155.656 257.19C155.182 258.16 154.518 258.914 153.663 259.453C152.813 259.992 151.822 260.261 150.69 260.261ZM150.69 258.53C151.55 258.53 152.258 258.309 152.813 257.868C153.369 257.427 153.78 256.847 154.047 256.129C154.314 255.41 154.447 254.631 154.447 253.793C154.447 252.954 154.314 252.173 154.047 251.449C153.78 250.724 153.369 250.139 152.813 249.692C152.258 249.246 151.55 249.023 150.69 249.023C149.83 249.023 149.122 249.246 148.566 249.692C148.011 250.139 147.6 250.724 147.333 251.449C147.066 252.173 146.933 252.954 146.933 253.793C146.933 254.631 147.066 255.41 147.333 256.129C147.6 256.847 148.011 257.427 148.566 257.868C149.122 258.309 149.83 258.53 150.69 258.53ZM160.238 247.455L163.244 252.584L166.249 247.455H168.471L164.42 253.727L168.471 260H166.249L163.244 255.132L160.238 260H158.016L162.002 253.727L158.016 247.455H160.238ZM172.626 260.131C172.223 260.131 171.877 259.986 171.589 259.698C171.3 259.409 171.156 259.063 171.156 258.661C171.156 258.258 171.3 257.912 171.589 257.623C171.877 257.335 172.223 257.19 172.626 257.19C173.029 257.19 173.375 257.335 173.663 257.623C173.952 257.912 174.096 258.258 174.096 258.661C174.096 258.927 174.028 259.172 173.892 259.396C173.761 259.619 173.584 259.799 173.361 259.935C173.143 260.065 172.898 260.131 172.626 260.131ZM184.285 260V243.273H194.381V245.07H186.311V250.722H193.858V252.518H186.311V258.203H194.511V260H184.285ZM208.029 247.455L203.389 260H201.429L196.79 247.455H198.881L202.344 257.452H202.475L205.938 247.455H208.029ZM215.384 260.261C214.175 260.261 213.132 259.995 212.255 259.461C211.384 258.922 210.712 258.17 210.238 257.207C209.77 256.237 209.536 255.11 209.536 253.825C209.536 252.54 209.77 251.408 210.238 250.428C210.712 249.442 211.371 248.674 212.214 248.124C213.064 247.569 214.055 247.291 215.188 247.291C215.841 247.291 216.486 247.4 217.123 247.618C217.76 247.836 218.34 248.19 218.863 248.68C219.386 249.164 219.802 249.807 220.113 250.607C220.423 251.408 220.578 252.393 220.578 253.564V254.381H210.908V252.714H218.618C218.618 252.007 218.476 251.375 218.193 250.82C217.915 250.264 217.518 249.826 217.001 249.505C216.489 249.183 215.884 249.023 215.188 249.023C214.42 249.023 213.755 249.213 213.195 249.594C212.639 249.97 212.212 250.46 211.912 251.065C211.613 251.669 211.463 252.317 211.463 253.009V254.119C211.463 255.067 211.626 255.87 211.953 256.529C212.285 257.182 212.745 257.68 213.333 258.023C213.922 258.361 214.605 258.53 215.384 258.53C215.89 258.53 216.347 258.459 216.756 258.317C217.17 258.17 217.526 257.953 217.826 257.664C218.125 257.37 218.357 257.005 218.52 256.57L220.382 257.092C220.186 257.724 219.857 258.279 219.394 258.759C218.931 259.232 218.359 259.603 217.679 259.869C216.998 260.131 216.233 260.261 215.384 260.261ZM223.51 260V247.455H225.373V249.349H225.503C225.732 248.729 226.146 248.225 226.745 247.838C227.344 247.452 228.019 247.259 228.77 247.259C228.912 247.259 229.089 247.261 229.301 247.267C229.513 247.272 229.674 247.28 229.783 247.291V249.251C229.718 249.235 229.568 249.211 229.334 249.178C229.105 249.14 228.863 249.121 228.607 249.121C227.997 249.121 227.453 249.249 226.973 249.505C226.5 249.755 226.124 250.104 225.846 250.55C225.574 250.991 225.438 251.495 225.438 252.061V260H223.51ZM233.691 264.705C233.365 264.705 233.073 264.677 232.817 264.623C232.561 264.574 232.384 264.525 232.286 264.476L232.776 262.777C233.245 262.897 233.659 262.94 234.018 262.908C234.377 262.875 234.696 262.714 234.974 262.426C235.257 262.143 235.515 261.683 235.749 261.045L236.109 260.065L231.47 247.455H233.561L237.024 257.452H237.154L240.617 247.455H242.708L237.383 261.83C237.143 262.478 236.847 263.014 236.493 263.439C236.139 263.869 235.728 264.187 235.259 264.394C234.797 264.601 234.274 264.705 233.691 264.705ZM254.564 260L250.741 247.455H252.767L255.478 257.06H255.609L258.288 247.455H260.346L262.993 257.027H263.123L265.835 247.455H267.86L264.038 260H262.143L259.399 250.362H259.203L256.458 260H254.564ZM275.242 260.261C274.033 260.261 272.99 259.995 272.114 259.461C271.243 258.922 270.57 258.17 270.096 257.207C269.628 256.237 269.394 255.11 269.394 253.825C269.394 252.54 269.628 251.408 270.096 250.428C270.57 249.442 271.229 248.674 272.073 248.124C272.922 247.569 273.913 247.291 275.046 247.291C275.699 247.291 276.345 247.4 276.982 247.618C277.619 247.836 278.199 248.19 278.721 248.68C279.244 249.164 279.661 249.807 279.971 250.607C280.281 251.408 280.437 252.393 280.437 253.564V254.381H270.766V252.714H278.476C278.476 252.007 278.335 251.375 278.052 250.82C277.774 250.264 277.376 249.826 276.859 249.505C276.347 249.183 275.743 249.023 275.046 249.023C274.278 249.023 273.614 249.213 273.053 249.594C272.498 249.97 272.07 250.46 271.771 251.065C271.471 251.669 271.321 252.317 271.321 253.009V254.119C271.321 255.067 271.485 255.87 271.812 256.529C272.144 257.182 272.604 257.68 273.192 258.023C273.78 258.361 274.463 258.53 275.242 258.53C275.748 258.53 276.206 258.459 276.614 258.317C277.028 258.17 277.385 257.953 277.684 257.664C277.984 257.37 278.215 257.005 278.378 256.57L280.241 257.092C280.044 257.724 279.715 258.279 279.252 258.759C278.789 259.232 278.218 259.603 277.537 259.869C276.856 260.131 276.091 260.261 275.242 260.261ZM288.629 260.261C287.42 260.261 286.377 259.995 285.5 259.461C284.629 258.922 283.957 258.17 283.483 257.207C283.015 256.237 282.781 255.11 282.781 253.825C282.781 252.54 283.015 251.408 283.483 250.428C283.957 249.442 284.616 248.674 285.46 248.124C286.309 247.569 287.3 247.291 288.433 247.291C289.086 247.291 289.731 247.4 290.368 247.618C291.005 247.836 291.585 248.19 292.108 248.68C292.631 249.164 293.047 249.807 293.358 250.607C293.668 251.408 293.823 252.393 293.823 253.564V254.381H284.153V252.714H291.863C291.863 252.007 291.721 251.375 291.438 250.82C291.161 250.264 290.763 249.826 290.246 249.505C289.734 249.183 289.13 249.023 288.433 249.023C287.665 249.023 287.001 249.213 286.44 249.594C285.884 249.97 285.457 250.46 285.157 251.065C284.858 251.669 284.708 252.317 284.708 253.009V254.119C284.708 255.067 284.872 255.87 285.198 256.529C285.53 257.182 285.991 257.68 286.579 258.023C287.167 258.361 287.85 258.53 288.629 258.53C289.135 258.53 289.592 258.459 290.001 258.317C290.415 258.17 290.771 257.953 291.071 257.664C291.37 257.37 291.602 257.005 291.765 256.57L293.627 257.092C293.431 257.724 293.102 258.279 292.639 258.759C292.176 259.232 291.604 259.603 290.924 259.869C290.243 260.131 289.478 260.261 288.629 260.261ZM298.552 255.426L298.52 253.041H298.912L304.4 247.455H306.785L300.937 253.368H300.774L298.552 255.426ZM296.755 260V243.273H298.683V260H296.755ZM304.727 260L299.826 253.793L301.199 252.453L307.177 260H304.727ZM310.671 260.131C310.268 260.131 309.922 259.986 309.634 259.698C309.345 259.409 309.201 259.063 309.201 258.661C309.201 258.258 309.345 257.912 309.634 257.623C309.922 257.335 310.268 257.19 310.671 257.19C311.074 257.19 311.42 257.335 311.708 257.623C311.997 257.912 312.141 258.258 312.141 258.661C312.141 258.927 312.073 259.172 311.937 259.396C311.806 259.619 311.629 259.799 311.406 259.935C311.188 260.065 310.943 260.131 310.671 260.131Z" fill="white"/>
</g>
<defs>
<linearGradient id="paint0_linear_0_1" x1="215" y1="43" x2="168.5" y2="109" gradientUnits="userSpaceOnUse">
<stop stop-color="#8989F8"/>
<stop offset="1" stop-color="#5C5CFF"/>
</linearGradient>
<clipPath id="clip0_0_1">
<rect width="1440" height="3967" fill="white" transform="translate(-535 -2692)"/>
</clipPath>
</defs>
</svg>
